<?xml version="1.0" encoding="utf-8" standalone="no"?>
<!DOCTYPE svg PUBLIC "-//W3C//DTD SVG 1.1//EN"
  "http://www.w3.org/Graphics/SVG/1.1/DTD/svg11.dtd">
<!-- Created with matplotlib (https://matplotlib.org/) -->
<svg height="230.918125pt" version="1.1" viewBox="0 0 375.2875 230.918125" width="375.2875pt" xmlns="http://www.w3.org/2000/svg" xmlns:xlink="http://www.w3.org/1999/xlink">
 <metadata>
  <rdf:RDF xmlns:cc="http://creativecommons.org/ns#" xmlns:dc="http://purl.org/dc/elements/1.1/" xmlns:rdf="http://www.w3.org/1999/02/22-rdf-syntax-ns#">
   <cc:Work>
    <dc:type rdf:resource="http://purl.org/dc/dcmitype/StillImage"/>
    <dc:date>2020-12-30T18:12:59.485498</dc:date>
    <dc:format>image/svg+xml</dc:format>
    <dc:creator>
     <cc:Agent>
      <dc:title>Matplotlib v3.3.3, https://matplotlib.org/</dc:title>
     </cc:Agent>
    </dc:creator>
   </cc:Work>
  </rdf:RDF>
 </metadata>
 <defs>
  <style type="text/css">*{stroke-linecap:butt;stroke-linejoin:round;}</style>
 </defs>
 <g id="figure_1">
  <g id="patch_1">
   <path d="M 0 230.918125 
L 375.2875 230.918125 
L 375.2875 0 
L 0 0 
z
" style="fill:none;"/>
  </g>
  <g id="axes_1">
   <g id="patch_2">
    <path d="M 33.2875 203.04 
L 368.0875 203.04 
L 368.0875 7.2 
L 33.2875 7.2 
z
" style="fill:#ffffff;"/>
   </g>
   <g id="matplotlib.axis_1">
    <g id="xtick_1">
     <g id="line2d_1">
      <defs>
       <path d="M 0 0 
L 0 3.5 
" id="m11554ed2ac" style="stroke:#000000;stroke-width:0.8;"/>
      </defs>
      <g>
       <use style="stroke:#000000;stroke-width:0.8;" x="48.505682" xlink:href="#m11554ed2ac" y="203.04"/>
      </g>
     </g>
    </g>
    <g id="xtick_2">
     <g id="line2d_2">
      <g>
       <use style="stroke:#000000;stroke-width:0.8;" x="88.343854" xlink:href="#m11554ed2ac" y="203.04"/>
      </g>
     </g>
    </g>
    <g id="xtick_3">
     <g id="line2d_3">
      <g>
       <use style="stroke:#000000;stroke-width:0.8;" x="128.182026" xlink:href="#m11554ed2ac" y="203.04"/>
      </g>
     </g>
    </g>
    <g id="xtick_4">
     <g id="line2d_4">
      <g>
       <use style="stroke:#000000;stroke-width:0.8;" x="168.020199" xlink:href="#m11554ed2ac" y="203.04"/>
      </g>
     </g>
    </g>
    <g id="xtick_5">
     <g id="line2d_5">
      <g>
       <use style="stroke:#000000;stroke-width:0.8;" x="207.858371" xlink:href="#m11554ed2ac" y="203.04"/>
      </g>
     </g>
    </g>
    <g id="xtick_6">
     <g id="line2d_6">
      <g>
       <use style="stroke:#000000;stroke-width:0.8;" x="247.696543" xlink:href="#m11554ed2ac" y="203.04"/>
      </g>
     </g>
    </g>
    <g id="xtick_7">
     <g id="line2d_7">
      <g>
       <use style="stroke:#000000;stroke-width:0.8;" x="287.534716" xlink:href="#m11554ed2ac" y="203.04"/>
      </g>
     </g>
    </g>
    <g id="xtick_8">
     <g id="line2d_8">
      <g>
       <use style="stroke:#000000;stroke-width:0.8;" x="327.372888" xlink:href="#m11554ed2ac" y="203.04"/>
      </g>
     </g>
    </g>
    <g id="xtick_9">
     <g id="line2d_9">
      <g>
       <use style="stroke:#000000;stroke-width:0.8;" x="367.21106" xlink:href="#m11554ed2ac" y="203.04"/>
      </g>
     </g>
    </g>
    <g id="text_1">
     <!-- time -->
     <g transform="translate(189.391406 221.638437)scale(0.1 -0.1)">
      <defs>
       <path d="M 18.3125 70.21875 
L 18.3125 54.6875 
L 36.8125 54.6875 
L 36.8125 47.703125 
L 18.3125 47.703125 
L 18.3125 18.015625 
Q 18.3125 11.328125 20.140625 9.421875 
Q 21.96875 7.515625 27.59375 7.515625 
L 36.8125 7.515625 
L 36.8125 0 
L 27.59375 0 
Q 17.1875 0 13.234375 3.875 
Q 9.28125 7.765625 9.28125 18.015625 
L 9.28125 47.703125 
L 2.6875 47.703125 
L 2.6875 54.6875 
L 9.28125 54.6875 
L 9.28125 70.21875 
z
" id="DejaVuSans-116"/>
       <path d="M 9.421875 54.6875 
L 18.40625 54.6875 
L 18.40625 0 
L 9.421875 0 
z
M 9.421875 75.984375 
L 18.40625 75.984375 
L 18.40625 64.59375 
L 9.421875 64.59375 
z
" id="DejaVuSans-105"/>
       <path d="M 52 44.1875 
Q 55.375 50.25 60.0625 53.125 
Q 64.75 56 71.09375 56 
Q 79.640625 56 84.28125 50.015625 
Q 88.921875 44.046875 88.921875 33.015625 
L 88.921875 0 
L 79.890625 0 
L 79.890625 32.71875 
Q 79.890625 40.578125 77.09375 44.375 
Q 74.3125 48.1875 68.609375 48.1875 
Q 61.625 48.1875 57.5625 43.546875 
Q 53.515625 38.921875 53.515625 30.90625 
L 53.515625 0 
L 44.484375 0 
L 44.484375 32.71875 
Q 44.484375 40.625 41.703125 44.40625 
Q 38.921875 48.1875 33.109375 48.1875 
Q 26.21875 48.1875 22.15625 43.53125 
Q 18.109375 38.875 18.109375 30.90625 
L 18.109375 0 
L 9.078125 0 
L 9.078125 54.6875 
L 18.109375 54.6875 
L 18.109375 46.1875 
Q 21.1875 51.21875 25.484375 53.609375 
Q 29.78125 56 35.6875 56 
Q 41.65625 56 45.828125 52.96875 
Q 50 49.953125 52 44.1875 
z
" id="DejaVuSans-109"/>
       <path d="M 56.203125 29.59375 
L 56.203125 25.203125 
L 14.890625 25.203125 
Q 15.484375 15.921875 20.484375 11.0625 
Q 25.484375 6.203125 34.421875 6.203125 
Q 39.59375 6.203125 44.453125 7.46875 
Q 49.3125 8.734375 54.109375 11.28125 
L 54.109375 2.78125 
Q 49.265625 0.734375 44.1875 -0.34375 
Q 39.109375 -1.421875 33.890625 -1.421875 
Q 20.796875 -1.421875 13.15625 6.1875 
Q 5.515625 13.8125 5.515625 26.8125 
Q 5.515625 40.234375 12.765625 48.109375 
Q 20.015625 56 32.328125 56 
Q 43.359375 56 49.78125 48.890625 
Q 56.203125 41.796875 56.203125 29.59375 
z
M 47.21875 32.234375 
Q 47.125 39.59375 43.09375 43.984375 
Q 39.0625 48.390625 32.421875 48.390625 
Q 24.90625 48.390625 20.390625 44.140625 
Q 15.875 39.890625 15.1875 32.171875 
z
" id="DejaVuSans-101"/>
      </defs>
      <use xlink:href="#DejaVuSans-116"/>
      <use x="39.208984" xlink:href="#DejaVuSans-105"/>
      <use x="66.992188" xlink:href="#DejaVuSans-109"/>
      <use x="164.404297" xlink:href="#DejaVuSans-101"/>
     </g>
    </g>
   </g>
   <g id="matplotlib.axis_2">
    <g id="ytick_1">
     <g id="line2d_10">
      <defs>
       <path d="M 0 0 
L -3.5 0 
" id="m32292baf59" style="stroke:#000000;stroke-width:0.8;"/>
      </defs>
      <g>
       <use style="stroke:#000000;stroke-width:0.8;" x="33.2875" xlink:href="#m32292baf59" y="187.383962"/>
      </g>
     </g>
     <g id="text_2">
      <!-- 160 -->
      <g transform="translate(7.2 191.183181)scale(0.1 -0.1)">
       <defs>
        <path d="M 12.40625 8.296875 
L 28.515625 8.296875 
L 28.515625 63.921875 
L 10.984375 60.40625 
L 10.984375 69.390625 
L 28.421875 72.90625 
L 38.28125 72.90625 
L 38.28125 8.296875 
L 54.390625 8.296875 
L 54.390625 0 
L 12.40625 0 
z
" id="DejaVuSans-49"/>
        <path d="M 33.015625 40.375 
Q 26.375 40.375 22.484375 35.828125 
Q 18.609375 31.296875 18.609375 23.390625 
Q 18.609375 15.53125 22.484375 10.953125 
Q 26.375 6.390625 33.015625 6.390625 
Q 39.65625 6.390625 43.53125 10.953125 
Q 47.40625 15.53125 47.40625 23.390625 
Q 47.40625 31.296875 43.53125 35.828125 
Q 39.65625 40.375 33.015625 40.375 
z
M 52.59375 71.296875 
L 52.59375 62.3125 
Q 48.875 64.0625 45.09375 64.984375 
Q 41.3125 65.921875 37.59375 65.921875 
Q 27.828125 65.921875 22.671875 59.328125 
Q 17.53125 52.734375 16.796875 39.40625 
Q 19.671875 43.65625 24.015625 45.921875 
Q 28.375 48.1875 33.59375 48.1875 
Q 44.578125 48.1875 50.953125 41.515625 
Q 57.328125 34.859375 57.328125 23.390625 
Q 57.328125 12.15625 50.6875 5.359375 
Q 44.046875 -1.421875 33.015625 -1.421875 
Q 20.359375 -1.421875 13.671875 8.265625 
Q 6.984375 17.96875 6.984375 36.375 
Q 6.984375 53.65625 15.1875 63.9375 
Q 23.390625 74.21875 37.203125 74.21875 
Q 40.921875 74.21875 44.703125 73.484375 
Q 48.484375 72.75 52.59375 71.296875 
z
" id="DejaVuSans-54"/>
        <path d="M 31.78125 66.40625 
Q 24.171875 66.40625 20.328125 58.90625 
Q 16.5 51.421875 16.5 36.375 
Q 16.5 21.390625 20.328125 13.890625 
Q 24.171875 6.390625 31.78125 6.390625 
Q 39.453125 6.390625 43.28125 13.890625 
Q 47.125 21.390625 47.125 36.375 
Q 47.125 51.421875 43.28125 58.90625 
Q 39.453125 66.40625 31.78125 66.40625 
z
M 31.78125 74.21875 
Q 44.046875 74.21875 50.515625 64.515625 
Q 56.984375 54.828125 56.984375 36.375 
Q 56.984375 17.96875 50.515625 8.265625 
Q 44.046875 -1.421875 31.78125 -1.421875 
Q 19.53125 -1.421875 13.0625 8.265625 
Q 6.59375 17.96875 6.59375 36.375 
Q 6.59375 54.828125 13.0625 64.515625 
Q 19.53125 74.21875 31.78125 74.21875 
z
" id="DejaVuSans-48"/>
       </defs>
       <use xlink:href="#DejaVuSans-49"/>
       <use x="63.623047" xlink:href="#DejaVuSans-54"/>
       <use x="127.246094" xlink:href="#DejaVuSans-48"/>
      </g>
     </g>
    </g>
    <g id="ytick_2">
     <g id="line2d_11">
      <g>
       <use style="stroke:#000000;stroke-width:0.8;" x="33.2875" xlink:href="#m32292baf59" y="156.772308"/>
      </g>
     </g>
     <g id="text_3">
      <!-- 170 -->
      <g transform="translate(7.2 160.571527)scale(0.1 -0.1)">
       <defs>
        <path d="M 8.203125 72.90625 
L 55.078125 72.90625 
L 55.078125 68.703125 
L 28.609375 0 
L 18.3125 0 
L 43.21875 64.59375 
L 8.203125 64.59375 
z
" id="DejaVuSans-55"/>
       </defs>
       <use xlink:href="#DejaVuSans-49"/>
       <use x="63.623047" xlink:href="#DejaVuSans-55"/>
       <use x="127.246094" xlink:href="#DejaVuSans-48"/>
      </g>
     </g>
    </g>
    <g id="ytick_3">
     <g id="line2d_12">
      <g>
       <use style="stroke:#000000;stroke-width:0.8;" x="33.2875" xlink:href="#m32292baf59" y="126.160654"/>
      </g>
     </g>
     <g id="text_4">
      <!-- 180 -->
      <g transform="translate(7.2 129.959873)scale(0.1 -0.1)">
       <defs>
        <path d="M 31.78125 34.625 
Q 24.75 34.625 20.71875 30.859375 
Q 16.703125 27.09375 16.703125 20.515625 
Q 16.703125 13.921875 20.71875 10.15625 
Q 24.75 6.390625 31.78125 6.390625 
Q 38.8125 6.390625 42.859375 10.171875 
Q 46.921875 13.96875 46.921875 20.515625 
Q 46.921875 27.09375 42.890625 30.859375 
Q 38.875 34.625 31.78125 34.625 
z
M 21.921875 38.8125 
Q 15.578125 40.375 12.03125 44.71875 
Q 8.5 49.078125 8.5 55.328125 
Q 8.5 64.0625 14.71875 69.140625 
Q 20.953125 74.21875 31.78125 74.21875 
Q 42.671875 74.21875 48.875 69.140625 
Q 55.078125 64.0625 55.078125 55.328125 
Q 55.078125 49.078125 51.53125 44.71875 
Q 48 40.375 41.703125 38.8125 
Q 48.828125 37.15625 52.796875 32.3125 
Q 56.78125 27.484375 56.78125 20.515625 
Q 56.78125 9.90625 50.3125 4.234375 
Q 43.84375 -1.421875 31.78125 -1.421875 
Q 19.734375 -1.421875 13.25 4.234375 
Q 6.78125 9.90625 6.78125 20.515625 
Q 6.78125 27.484375 10.78125 32.3125 
Q 14.796875 37.15625 21.921875 38.8125 
z
M 18.3125 54.390625 
Q 18.3125 48.734375 21.84375 45.5625 
Q 25.390625 42.390625 31.78125 42.390625 
Q 38.140625 42.390625 41.71875 45.5625 
Q 45.3125 48.734375 45.3125 54.390625 
Q 45.3125 60.0625 41.71875 63.234375 
Q 38.140625 66.40625 31.78125 66.40625 
Q 25.390625 66.40625 21.84375 63.234375 
Q 18.3125 60.0625 18.3125 54.390625 
z
" id="DejaVuSans-56"/>
       </defs>
       <use xlink:href="#DejaVuSans-49"/>
       <use x="63.623047" xlink:href="#DejaVuSans-56"/>
       <use x="127.246094" xlink:href="#DejaVuSans-48"/>
      </g>
     </g>
    </g>
    <g id="ytick_4">
     <g id="line2d_13">
      <g>
       <use style="stroke:#000000;stroke-width:0.8;" x="33.2875" xlink:href="#m32292baf59" y="95.549"/>
      </g>
     </g>
     <g id="text_5">
      <!-- 190 -->
      <g transform="translate(7.2 99.348219)scale(0.1 -0.1)">
       <defs>
        <path d="M 10.984375 1.515625 
L 10.984375 10.5 
Q 14.703125 8.734375 18.5 7.8125 
Q 22.3125 6.890625 25.984375 6.890625 
Q 35.75 6.890625 40.890625 13.453125 
Q 46.046875 20.015625 46.78125 33.40625 
Q 43.953125 29.203125 39.59375 26.953125 
Q 35.25 24.703125 29.984375 24.703125 
Q 19.046875 24.703125 12.671875 31.3125 
Q 6.296875 37.9375 6.296875 49.421875 
Q 6.296875 60.640625 12.9375 67.421875 
Q 19.578125 74.21875 30.609375 74.21875 
Q 43.265625 74.21875 49.921875 64.515625 
Q 56.59375 54.828125 56.59375 36.375 
Q 56.59375 19.140625 48.40625 8.859375 
Q 40.234375 -1.421875 26.421875 -1.421875 
Q 22.703125 -1.421875 18.890625 -0.6875 
Q 15.09375 0.046875 10.984375 1.515625 
z
M 30.609375 32.421875 
Q 37.25 32.421875 41.125 36.953125 
Q 45.015625 41.5 45.015625 49.421875 
Q 45.015625 57.28125 41.125 61.84375 
Q 37.25 66.40625 30.609375 66.40625 
Q 23.96875 66.40625 20.09375 61.84375 
Q 16.21875 57.28125 16.21875 49.421875 
Q 16.21875 41.5 20.09375 36.953125 
Q 23.96875 32.421875 30.609375 32.421875 
z
" id="DejaVuSans-57"/>
       </defs>
       <use xlink:href="#DejaVuSans-49"/>
       <use x="63.623047" xlink:href="#DejaVuSans-57"/>
       <use x="127.246094" xlink:href="#DejaVuSans-48"/>
      </g>
     </g>
    </g>
    <g id="ytick_5">
     <g id="line2d_14">
      <g>
       <use style="stroke:#000000;stroke-width:0.8;" x="33.2875" xlink:href="#m32292baf59" y="64.937346"/>
      </g>
     </g>
     <g id="text_6">
      <!-- 200 -->
      <g transform="translate(7.2 68.736565)scale(0.1 -0.1)">
       <defs>
        <path d="M 19.1875 8.296875 
L 53.609375 8.296875 
L 53.609375 0 
L 7.328125 0 
L 7.328125 8.296875 
Q 12.9375 14.109375 22.625 23.890625 
Q 32.328125 33.6875 34.8125 36.53125 
Q 39.546875 41.84375 41.421875 45.53125 
Q 43.3125 49.21875 43.3125 52.78125 
Q 43.3125 58.59375 39.234375 62.25 
Q 35.15625 65.921875 28.609375 65.921875 
Q 23.96875 65.921875 18.8125 64.3125 
Q 13.671875 62.703125 7.8125 59.421875 
L 7.8125 69.390625 
Q 13.765625 71.78125 18.9375 73 
Q 24.125 74.21875 28.421875 74.21875 
Q 39.75 74.21875 46.484375 68.546875 
Q 53.21875 62.890625 53.21875 53.421875 
Q 53.21875 48.921875 51.53125 44.890625 
Q 49.859375 40.875 45.40625 35.40625 
Q 44.1875 33.984375 37.640625 27.21875 
Q 31.109375 20.453125 19.1875 8.296875 
z
" id="DejaVuSans-50"/>
       </defs>
       <use xlink:href="#DejaVuSans-50"/>
       <use x="63.623047" xlink:href="#DejaVuSans-48"/>
       <use x="127.246094" xlink:href="#DejaVuSans-48"/>
      </g>
     </g>
    </g>
    <g id="ytick_6">
     <g id="line2d_15">
      <g>
       <use style="stroke:#000000;stroke-width:0.8;" x="33.2875" xlink:href="#m32292baf59" y="34.325692"/>
      </g>
     </g>
     <g id="text_7">
      <!-- 210 -->
      <g transform="translate(7.2 38.124911)scale(0.1 -0.1)">
       <use xlink:href="#DejaVuSans-50"/>
       <use x="63.623047" xlink:href="#DejaVuSans-49"/>
       <use x="127.246094" xlink:href="#DejaVuSans-48"/>
      </g>
     </g>
    </g>
   </g>
   <g id="line2d_16">
    <path clip-path="url(#p9425a15706)" d="M 48.505682 129.397448 
L 50.099209 129.397448 
L 50.895972 133.811699 
L 51.692736 133.811699 
L 52.489499 135.282867 
L 53.286262 135.282867 
L 54.083026 129.397448 
L 54.879789 124.98357 
L 55.676553 116.155442 
L 56.473316 105.855397 
L 57.27008 97.027642 
L 58.066843 91.142223 
L 59.66037 85.25643 
L 60.457134 79.37101 
L 61.253897 63.185546 
L 62.847424 41.115037 
L 65.237714 36.700786 
L 66.034478 32.286908 
L 66.831241 29.343825 
L 67.628005 20.51607 
L 68.424768 16.101818 
L 69.221531 35.229244 
L 70.018295 77.899469 
L 70.815058 110.269648 
L 71.611822 116.155442 
L 72.408585 124.98357 
L 73.205349 130.86899 
L 74.002112 135.282867 
L 74.798876 136.754409 
L 76.392402 136.754409 
L 78.782693 132.340531 
L 79.579456 129.397448 
L 80.37622 129.397448 
L 81.172983 126.455112 
L 81.969747 127.92628 
L 83.563273 124.98357 
L 84.360037 124.98357 
L 85.1568 126.455112 
L 85.953564 124.98357 
L 86.750327 124.98357 
L 87.547091 130.86899 
L 88.343854 133.811699 
L 89.140618 138.225951 
L 89.937381 139.697493 
L 90.734144 142.640202 
L 92.327671 142.640202 
L 93.124435 144.111744 
L 93.921198 144.111744 
L 94.717962 145.582912 
L 95.514725 148.525621 
L 96.311489 148.525621 
L 97.108252 154.411041 
L 97.905015 155.882582 
L 98.701779 158.824918 
L 99.498542 157.35375 
L 100.295306 158.824918 
L 101.092069 154.411041 
L 101.888833 152.939499 
L 103.48236 152.939499 
L 104.279123 151.468331 
L 105.075886 151.468331 
L 106.669413 148.525621 
L 107.466177 148.525621 
L 108.26294 144.111744 
L 109.059704 138.225951 
L 110.653231 138.225951 
L 111.449994 139.697493 
L 113.043521 145.582912 
L 113.840284 139.697493 
L 114.637048 138.225951 
L 116.230575 138.225951 
L 117.027338 141.16866 
L 117.824102 139.697493 
L 118.620865 136.754409 
L 119.417629 135.282867 
L 120.214392 135.282867 
L 121.807919 132.340531 
L 122.604682 132.340531 
L 123.401446 133.811699 
L 124.994973 130.86899 
L 125.791736 130.86899 
L 126.5885 129.397448 
L 127.385263 126.455112 
L 128.182026 129.397448 
L 129.775553 132.340531 
L 130.572317 135.282867 
L 131.36908 139.697493 
L 132.165844 141.16866 
L 133.759371 147.05408 
L 134.556134 152.939499 
L 135.352897 157.35375 
L 136.149661 158.824918 
L 136.946424 164.710711 
L 137.743188 166.182253 
L 138.539951 166.182253 
L 139.336715 164.710711 
L 140.133478 164.710711 
L 141.727005 161.768002 
L 142.523768 163.239543 
L 143.320532 166.182253 
L 144.914059 160.29646 
L 145.710822 151.468331 
L 146.507586 147.05408 
L 147.304349 147.05408 
L 149.694639 151.468331 
L 150.491403 155.882582 
L 152.881693 147.05408 
L 153.678457 145.582912 
L 154.47522 147.05408 
L 156.068747 147.05408 
L 156.86551 145.582912 
L 157.662274 142.640202 
L 159.255801 145.582912 
L 160.052564 144.111744 
L 160.849328 139.697493 
L 162.442855 139.697493 
L 163.239618 135.282867 
L 164.833145 132.340531 
L 166.426672 135.282867 
L 168.020199 129.397448 
L 168.816962 136.754409 
L 169.613726 141.16866 
L 170.410489 152.939499 
L 171.207252 158.824918 
L 172.004016 161.768002 
L 172.800779 170.596131 
L 175.987833 188.252762 
L 176.784597 189.724304 
L 178.378124 189.724304 
L 180.768414 194.138182 
L 181.565177 194.138182 
L 183.158704 191.195846 
L 183.955468 185.310053 
L 184.752231 180.895801 
L 187.142521 180.895801 
L 187.939285 177.953092 
L 188.736048 180.895801 
L 189.532812 180.895801 
L 190.329575 182.366969 
L 191.126339 177.953092 
L 191.923102 177.953092 
L 192.719866 172.067672 
L 193.516629 172.067672 
L 195.110156 166.182253 
L 195.906919 166.182253 
L 196.703683 164.710711 
L 198.29721 158.824918 
L 199.093973 158.824918 
L 202.281027 152.939499 
L 203.07779 149.997163 
L 203.874554 149.997163 
L 204.671317 147.05408 
L 205.468081 147.05408 
L 206.264844 149.997163 
L 208.655134 149.997163 
L 209.451898 151.468331 
L 210.248661 151.468331 
L 211.842188 160.29646 
L 212.638952 163.239543 
L 213.435715 164.710711 
L 214.232479 167.653795 
L 215.029242 169.124963 
L 215.826005 172.067672 
L 217.419532 172.067672 
L 218.216296 173.539214 
L 219.013059 173.539214 
L 219.809823 179.424633 
L 221.40335 176.48155 
L 222.200113 172.067672 
L 222.996876 172.067672 
L 224.590403 160.29646 
L 225.387167 158.824918 
L 226.18393 163.239543 
L 226.980694 163.239543 
L 229.370984 167.653795 
L 230.167748 170.596131 
L 230.964511 176.48155 
L 231.761274 177.953092 
L 232.558038 177.953092 
L 233.354801 175.010382 
L 234.151565 175.010382 
L 234.948328 173.539214 
L 235.745092 175.010382 
L 236.541855 172.067672 
L 237.338619 172.067672 
L 238.135382 169.124963 
L 238.932145 167.653795 
L 239.728909 167.653795 
L 240.525672 164.710711 
L 242.119199 161.768002 
L 242.915963 161.768002 
L 246.103016 155.882582 
L 246.89978 152.939499 
L 248.493307 155.882582 
L 249.29007 155.882582 
L 250.086834 157.35375 
L 250.883597 154.411041 
L 251.680361 152.939499 
L 254.070651 152.939499 
L 254.867414 151.468331 
L 255.664178 147.05408 
L 256.460941 144.111744 
L 257.257705 144.111744 
L 258.054468 149.997163 
L 258.851232 152.939499 
L 260.444758 161.768002 
L 261.241522 164.710711 
L 262.038285 169.124963 
L 262.835049 170.596131 
L 263.631812 175.010382 
L 264.428576 177.953092 
L 265.225339 182.366969 
L 266.022103 185.310053 
L 267.615629 185.310053 
L 268.412393 188.252762 
L 269.209156 188.252762 
L 270.00592 189.724304 
L 270.802683 189.724304 
L 271.599447 194.138182 
L 272.39621 194.138182 
L 273.192974 191.195846 
L 273.989737 186.781221 
L 274.7865 183.838511 
L 277.176791 183.838511 
L 277.973554 177.953092 
L 278.770318 175.010382 
L 279.567081 173.539214 
L 280.363845 173.539214 
L 282.754135 169.124963 
L 283.550898 175.010382 
L 284.347662 177.953092 
L 285.941189 180.895801 
L 286.737952 186.781221 
L 287.534716 188.252762 
L 288.331479 188.252762 
L 289.128243 185.310053 
L 289.925006 180.895801 
L 291.518533 169.124963 
L 292.315296 167.653795 
L 293.11206 167.653795 
L 293.908823 166.182253 
L 294.705587 163.239543 
L 295.50235 161.768002 
L 296.299114 164.710711 
L 297.89264 155.882582 
L 300.282931 160.29646 
L 301.079694 160.29646 
L 301.876458 161.768002 
L 302.673221 158.824918 
L 303.469985 157.35375 
L 305.063511 157.35375 
L 305.860275 158.824918 
L 306.657038 158.824918 
L 308.250565 152.939499 
L 309.047329 152.939499 
L 310.640856 149.997163 
L 311.437619 149.997163 
L 312.234382 148.525621 
L 313.031146 145.582912 
L 313.827909 144.111744 
L 314.624673 145.582912 
L 315.421436 145.582912 
L 316.2182 144.111744 
L 317.014963 144.111744 
L 317.811727 145.582912 
L 318.60849 144.111744 
L 319.405253 139.697493 
L 320.202017 136.754409 
L 320.99878 129.397448 
L 321.795544 124.98357 
L 322.592307 122.040861 
L 323.389071 120.569693 
L 324.185834 117.626609 
L 324.982598 117.626609 
L 325.779361 124.98357 
L 327.372888 130.86899 
L 328.169651 132.340531 
L 328.966415 132.340531 
L 329.763178 130.86899 
L 330.559942 135.282867 
L 331.356705 138.225951 
L 332.153469 142.640202 
L 332.950232 144.111744 
L 333.746995 148.525621 
L 334.543759 151.468331 
L 335.340522 152.939499 
L 336.137286 152.939499 
L 337.730813 155.882582 
L 338.527576 155.882582 
L 339.32434 157.35375 
L 340.121103 155.882582 
L 340.917866 157.35375 
L 341.71463 157.35375 
L 342.511393 158.824918 
L 343.308157 158.824918 
L 344.10492 155.882582 
L 344.901684 154.411041 
L 345.698447 149.997163 
L 347.291974 152.939499 
L 348.088738 152.939499 
L 348.885501 157.35375 
L 349.682264 155.882582 
L 350.479028 157.35375 
L 352.072555 163.239543 
L 352.869318 167.653795 
L 352.869318 167.653795 
" style="fill:none;stroke:#1f77b4;stroke-linecap:square;stroke-width:1.5;"/>
   </g>
   <g id="patch_3">
    <path d="M 33.2875 203.04 
L 33.2875 7.2 
" style="fill:none;stroke:#000000;stroke-linecap:square;stroke-linejoin:miter;stroke-width:0.8;"/>
   </g>
   <g id="patch_4">
    <path d="M 368.0875 203.04 
L 368.0875 7.2 
" style="fill:none;stroke:#000000;stroke-linecap:square;stroke-linejoin:miter;stroke-width:0.8;"/>
   </g>
   <g id="patch_5">
    <path d="M 33.2875 203.04 
L 368.0875 203.04 
" style="fill:none;stroke:#000000;stroke-linecap:square;stroke-linejoin:miter;stroke-width:0.8;"/>
   </g>
   <g id="patch_6">
    <path d="M 33.2875 7.2 
L 368.0875 7.2 
" style="fill:none;stroke:#000000;stroke-linecap:square;stroke-linejoin:miter;stroke-width:0.8;"/>
   </g>
   <g id="legend_1">
    <g id="patch_7">
     <path d="M 316.260938 29.878125 
L 361.0875 29.878125 
Q 363.0875 29.878125 363.0875 27.878125 
L 363.0875 14.2 
Q 363.0875 12.2 361.0875 12.2 
L 316.260938 12.2 
Q 314.260938 12.2 314.260938 14.2 
L 314.260938 27.878125 
Q 314.260938 29.878125 316.260938 29.878125 
z
" style="fill:#ffffff;opacity:0.8;stroke:#cccccc;stroke-linejoin:miter;"/>
    </g>
    <g id="line2d_17">
     <path d="M 318.260938 20.298438 
L 338.260938 20.298438 
" style="fill:none;stroke:#1f77b4;stroke-linecap:square;stroke-width:1.5;"/>
    </g>
    <g id="line2d_18"/>
    <g id="text_8">
     <!-- alt -->
     <g transform="translate(346.260938 23.798438)scale(0.1 -0.1)">
      <defs>
       <path d="M 34.28125 27.484375 
Q 23.390625 27.484375 19.1875 25 
Q 14.984375 22.515625 14.984375 16.5 
Q 14.984375 11.71875 18.140625 8.90625 
Q 21.296875 6.109375 26.703125 6.109375 
Q 34.1875 6.109375 38.703125 11.40625 
Q 43.21875 16.703125 43.21875 25.484375 
L 43.21875 27.484375 
z
M 52.203125 31.203125 
L 52.203125 0 
L 43.21875 0 
L 43.21875 8.296875 
Q 40.140625 3.328125 35.546875 0.953125 
Q 30.953125 -1.421875 24.3125 -1.421875 
Q 15.921875 -1.421875 10.953125 3.296875 
Q 6 8.015625 6 15.921875 
Q 6 25.140625 12.171875 29.828125 
Q 18.359375 34.515625 30.609375 34.515625 
L 43.21875 34.515625 
L 43.21875 35.40625 
Q 43.21875 41.609375 39.140625 45 
Q 35.0625 48.390625 27.6875 48.390625 
Q 23 48.390625 18.546875 47.265625 
Q 14.109375 46.140625 10.015625 43.890625 
L 10.015625 52.203125 
Q 14.9375 54.109375 19.578125 55.046875 
Q 24.21875 56 28.609375 56 
Q 40.484375 56 46.34375 49.84375 
Q 52.203125 43.703125 52.203125 31.203125 
z
" id="DejaVuSans-97"/>
       <path d="M 9.421875 75.984375 
L 18.40625 75.984375 
L 18.40625 0 
L 9.421875 0 
z
" id="DejaVuSans-108"/>
      </defs>
      <use xlink:href="#DejaVuSans-97"/>
      <use x="61.279297" xlink:href="#DejaVuSans-108"/>
      <use x="89.0625" xlink:href="#DejaVuSans-116"/>
     </g>
    </g>
   </g>
  </g>
 </g>
 <defs>
  <clipPath id="p9425a15706">
   <rect height="195.84" width="334.8" x="33.2875" y="7.2"/>
  </clipPath>
 </defs>
</svg>
