<?xml version="1.0" encoding="utf-8" standalone="no"?>
<!DOCTYPE svg PUBLIC "-//W3C//DTD SVG 1.1//EN"
  "http://www.w3.org/Graphics/SVG/1.1/DTD/svg11.dtd">
<!-- Created with matplotlib (https://matplotlib.org/) -->
<svg height="262.19625pt" version="1.1" viewBox="0 0 391.190625 262.19625" width="391.190625pt" xmlns="http://www.w3.org/2000/svg" xmlns:xlink="http://www.w3.org/1999/xlink">
 <metadata>
  <rdf:RDF xmlns:cc="http://creativecommons.org/ns#" xmlns:dc="http://purl.org/dc/elements/1.1/" xmlns:rdf="http://www.w3.org/1999/02/22-rdf-syntax-ns#">
   <cc:Work>
    <dc:type rdf:resource="http://purl.org/dc/dcmitype/StillImage"/>
    <dc:date>2020-12-30T18:19:51.674550</dc:date>
    <dc:format>image/svg+xml</dc:format>
    <dc:creator>
     <cc:Agent>
      <dc:title>Matplotlib v3.3.3, https://matplotlib.org/</dc:title>
     </cc:Agent>
    </dc:creator>
   </cc:Work>
  </rdf:RDF>
 </metadata>
 <defs>
  <style type="text/css">*{stroke-linecap:butt;stroke-linejoin:round;}</style>
 </defs>
 <g id="figure_1">
  <g id="patch_1">
   <path d="M 0 262.19625 
L 391.190625 262.19625 
L 391.190625 0 
L 0 0 
z
" style="fill:none;"/>
  </g>
  <g id="axes_1">
   <g id="patch_2">
    <path d="M 49.190625 224.64 
L 383.990625 224.64 
L 383.990625 7.2 
L 49.190625 7.2 
z
" style="fill:#ffffff;"/>
   </g>
   <g id="matplotlib.axis_1">
    <g id="xtick_1">
     <g id="line2d_1">
      <defs>
       <path d="M 0 0 
L 0 3.5 
" id="m61c1733579" style="stroke:#000000;stroke-width:0.8;"/>
      </defs>
      <g>
       <use style="stroke:#000000;stroke-width:0.8;" x="74.846955" xlink:href="#m61c1733579" y="224.64"/>
      </g>
     </g>
     <g id="text_1">
      <!-- −0.007 -->
      <g transform="translate(56.343049 239.238438)scale(0.1 -0.1)">
       <defs>
        <path d="M 10.59375 35.5 
L 73.1875 35.5 
L 73.1875 27.203125 
L 10.59375 27.203125 
z
" id="DejaVuSans-8722"/>
        <path d="M 31.78125 66.40625 
Q 24.171875 66.40625 20.328125 58.90625 
Q 16.5 51.421875 16.5 36.375 
Q 16.5 21.390625 20.328125 13.890625 
Q 24.171875 6.390625 31.78125 6.390625 
Q 39.453125 6.390625 43.28125 13.890625 
Q 47.125 21.390625 47.125 36.375 
Q 47.125 51.421875 43.28125 58.90625 
Q 39.453125 66.40625 31.78125 66.40625 
z
M 31.78125 74.21875 
Q 44.046875 74.21875 50.515625 64.515625 
Q 56.984375 54.828125 56.984375 36.375 
Q 56.984375 17.96875 50.515625 8.265625 
Q 44.046875 -1.421875 31.78125 -1.421875 
Q 19.53125 -1.421875 13.0625 8.265625 
Q 6.59375 17.96875 6.59375 36.375 
Q 6.59375 54.828125 13.0625 64.515625 
Q 19.53125 74.21875 31.78125 74.21875 
z
" id="DejaVuSans-48"/>
        <path d="M 10.6875 12.40625 
L 21 12.40625 
L 21 0 
L 10.6875 0 
z
" id="DejaVuSans-46"/>
        <path d="M 8.203125 72.90625 
L 55.078125 72.90625 
L 55.078125 68.703125 
L 28.609375 0 
L 18.3125 0 
L 43.21875 64.59375 
L 8.203125 64.59375 
z
" id="DejaVuSans-55"/>
       </defs>
       <use xlink:href="#DejaVuSans-8722"/>
       <use x="83.789062" xlink:href="#DejaVuSans-48"/>
       <use x="147.412109" xlink:href="#DejaVuSans-46"/>
       <use x="179.199219" xlink:href="#DejaVuSans-48"/>
       <use x="242.822266" xlink:href="#DejaVuSans-48"/>
       <use x="306.445312" xlink:href="#DejaVuSans-55"/>
      </g>
     </g>
    </g>
    <g id="xtick_2">
     <g id="line2d_2">
      <g>
       <use style="stroke:#000000;stroke-width:0.8;" x="132.427464" xlink:href="#m61c1733579" y="224.64"/>
      </g>
     </g>
     <g id="text_2">
      <!-- −0.006 -->
      <g transform="translate(113.923558 239.238438)scale(0.1 -0.1)">
       <defs>
        <path d="M 33.015625 40.375 
Q 26.375 40.375 22.484375 35.828125 
Q 18.609375 31.296875 18.609375 23.390625 
Q 18.609375 15.53125 22.484375 10.953125 
Q 26.375 6.390625 33.015625 6.390625 
Q 39.65625 6.390625 43.53125 10.953125 
Q 47.40625 15.53125 47.40625 23.390625 
Q 47.40625 31.296875 43.53125 35.828125 
Q 39.65625 40.375 33.015625 40.375 
z
M 52.59375 71.296875 
L 52.59375 62.3125 
Q 48.875 64.0625 45.09375 64.984375 
Q 41.3125 65.921875 37.59375 65.921875 
Q 27.828125 65.921875 22.671875 59.328125 
Q 17.53125 52.734375 16.796875 39.40625 
Q 19.671875 43.65625 24.015625 45.921875 
Q 28.375 48.1875 33.59375 48.1875 
Q 44.578125 48.1875 50.953125 41.515625 
Q 57.328125 34.859375 57.328125 23.390625 
Q 57.328125 12.15625 50.6875 5.359375 
Q 44.046875 -1.421875 33.015625 -1.421875 
Q 20.359375 -1.421875 13.671875 8.265625 
Q 6.984375 17.96875 6.984375 36.375 
Q 6.984375 53.65625 15.1875 63.9375 
Q 23.390625 74.21875 37.203125 74.21875 
Q 40.921875 74.21875 44.703125 73.484375 
Q 48.484375 72.75 52.59375 71.296875 
z
" id="DejaVuSans-54"/>
       </defs>
       <use xlink:href="#DejaVuSans-8722"/>
       <use x="83.789062" xlink:href="#DejaVuSans-48"/>
       <use x="147.412109" xlink:href="#DejaVuSans-46"/>
       <use x="179.199219" xlink:href="#DejaVuSans-48"/>
       <use x="242.822266" xlink:href="#DejaVuSans-48"/>
       <use x="306.445312" xlink:href="#DejaVuSans-54"/>
      </g>
     </g>
    </g>
    <g id="xtick_3">
     <g id="line2d_3">
      <g>
       <use style="stroke:#000000;stroke-width:0.8;" x="190.007973" xlink:href="#m61c1733579" y="224.64"/>
      </g>
     </g>
     <g id="text_3">
      <!-- −0.005 -->
      <g transform="translate(171.504067 239.238438)scale(0.1 -0.1)">
       <defs>
        <path d="M 10.796875 72.90625 
L 49.515625 72.90625 
L 49.515625 64.59375 
L 19.828125 64.59375 
L 19.828125 46.734375 
Q 21.96875 47.46875 24.109375 47.828125 
Q 26.265625 48.1875 28.421875 48.1875 
Q 40.625 48.1875 47.75 41.5 
Q 54.890625 34.8125 54.890625 23.390625 
Q 54.890625 11.625 47.5625 5.09375 
Q 40.234375 -1.421875 26.90625 -1.421875 
Q 22.3125 -1.421875 17.546875 -0.640625 
Q 12.796875 0.140625 7.71875 1.703125 
L 7.71875 11.625 
Q 12.109375 9.234375 16.796875 8.0625 
Q 21.484375 6.890625 26.703125 6.890625 
Q 35.15625 6.890625 40.078125 11.328125 
Q 45.015625 15.765625 45.015625 23.390625 
Q 45.015625 31 40.078125 35.4375 
Q 35.15625 39.890625 26.703125 39.890625 
Q 22.75 39.890625 18.8125 39.015625 
Q 14.890625 38.140625 10.796875 36.28125 
z
" id="DejaVuSans-53"/>
       </defs>
       <use xlink:href="#DejaVuSans-8722"/>
       <use x="83.789062" xlink:href="#DejaVuSans-48"/>
       <use x="147.412109" xlink:href="#DejaVuSans-46"/>
       <use x="179.199219" xlink:href="#DejaVuSans-48"/>
       <use x="242.822266" xlink:href="#DejaVuSans-48"/>
       <use x="306.445312" xlink:href="#DejaVuSans-53"/>
      </g>
     </g>
    </g>
    <g id="xtick_4">
     <g id="line2d_4">
      <g>
       <use style="stroke:#000000;stroke-width:0.8;" x="247.588482" xlink:href="#m61c1733579" y="224.64"/>
      </g>
     </g>
     <g id="text_4">
      <!-- −0.004 -->
      <g transform="translate(229.084575 239.238438)scale(0.1 -0.1)">
       <defs>
        <path d="M 37.796875 64.3125 
L 12.890625 25.390625 
L 37.796875 25.390625 
z
M 35.203125 72.90625 
L 47.609375 72.90625 
L 47.609375 25.390625 
L 58.015625 25.390625 
L 58.015625 17.1875 
L 47.609375 17.1875 
L 47.609375 0 
L 37.796875 0 
L 37.796875 17.1875 
L 4.890625 17.1875 
L 4.890625 26.703125 
z
" id="DejaVuSans-52"/>
       </defs>
       <use xlink:href="#DejaVuSans-8722"/>
       <use x="83.789062" xlink:href="#DejaVuSans-48"/>
       <use x="147.412109" xlink:href="#DejaVuSans-46"/>
       <use x="179.199219" xlink:href="#DejaVuSans-48"/>
       <use x="242.822266" xlink:href="#DejaVuSans-48"/>
       <use x="306.445312" xlink:href="#DejaVuSans-52"/>
      </g>
     </g>
    </g>
    <g id="xtick_5">
     <g id="line2d_5">
      <g>
       <use style="stroke:#000000;stroke-width:0.8;" x="305.16899" xlink:href="#m61c1733579" y="224.64"/>
      </g>
     </g>
     <g id="text_5">
      <!-- −0.003 -->
      <g transform="translate(286.665084 239.238438)scale(0.1 -0.1)">
       <defs>
        <path d="M 40.578125 39.3125 
Q 47.65625 37.796875 51.625 33 
Q 55.609375 28.21875 55.609375 21.1875 
Q 55.609375 10.40625 48.1875 4.484375 
Q 40.765625 -1.421875 27.09375 -1.421875 
Q 22.515625 -1.421875 17.65625 -0.515625 
Q 12.796875 0.390625 7.625 2.203125 
L 7.625 11.71875 
Q 11.71875 9.328125 16.59375 8.109375 
Q 21.484375 6.890625 26.8125 6.890625 
Q 36.078125 6.890625 40.9375 10.546875 
Q 45.796875 14.203125 45.796875 21.1875 
Q 45.796875 27.640625 41.28125 31.265625 
Q 36.765625 34.90625 28.71875 34.90625 
L 20.21875 34.90625 
L 20.21875 43.015625 
L 29.109375 43.015625 
Q 36.375 43.015625 40.234375 45.921875 
Q 44.09375 48.828125 44.09375 54.296875 
Q 44.09375 59.90625 40.109375 62.90625 
Q 36.140625 65.921875 28.71875 65.921875 
Q 24.65625 65.921875 20.015625 65.03125 
Q 15.375 64.15625 9.8125 62.3125 
L 9.8125 71.09375 
Q 15.4375 72.65625 20.34375 73.4375 
Q 25.25 74.21875 29.59375 74.21875 
Q 40.828125 74.21875 47.359375 69.109375 
Q 53.90625 64.015625 53.90625 55.328125 
Q 53.90625 49.265625 50.4375 45.09375 
Q 46.96875 40.921875 40.578125 39.3125 
z
" id="DejaVuSans-51"/>
       </defs>
       <use xlink:href="#DejaVuSans-8722"/>
       <use x="83.789062" xlink:href="#DejaVuSans-48"/>
       <use x="147.412109" xlink:href="#DejaVuSans-46"/>
       <use x="179.199219" xlink:href="#DejaVuSans-48"/>
       <use x="242.822266" xlink:href="#DejaVuSans-48"/>
       <use x="306.445312" xlink:href="#DejaVuSans-51"/>
      </g>
     </g>
    </g>
    <g id="xtick_6">
     <g id="line2d_6">
      <g>
       <use style="stroke:#000000;stroke-width:0.8;" x="362.749499" xlink:href="#m61c1733579" y="224.64"/>
      </g>
     </g>
     <g id="text_6">
      <!-- −0.002 -->
      <g transform="translate(344.245593 239.238438)scale(0.1 -0.1)">
       <defs>
        <path d="M 19.1875 8.296875 
L 53.609375 8.296875 
L 53.609375 0 
L 7.328125 0 
L 7.328125 8.296875 
Q 12.9375 14.109375 22.625 23.890625 
Q 32.328125 33.6875 34.8125 36.53125 
Q 39.546875 41.84375 41.421875 45.53125 
Q 43.3125 49.21875 43.3125 52.78125 
Q 43.3125 58.59375 39.234375 62.25 
Q 35.15625 65.921875 28.609375 65.921875 
Q 23.96875 65.921875 18.8125 64.3125 
Q 13.671875 62.703125 7.8125 59.421875 
L 7.8125 69.390625 
Q 13.765625 71.78125 18.9375 73 
Q 24.125 74.21875 28.421875 74.21875 
Q 39.75 74.21875 46.484375 68.546875 
Q 53.21875 62.890625 53.21875 53.421875 
Q 53.21875 48.921875 51.53125 44.890625 
Q 49.859375 40.875 45.40625 35.40625 
Q 44.1875 33.984375 37.640625 27.21875 
Q 31.109375 20.453125 19.1875 8.296875 
z
" id="DejaVuSans-50"/>
       </defs>
       <use xlink:href="#DejaVuSans-8722"/>
       <use x="83.789062" xlink:href="#DejaVuSans-48"/>
       <use x="147.412109" xlink:href="#DejaVuSans-46"/>
       <use x="179.199219" xlink:href="#DejaVuSans-48"/>
       <use x="242.822266" xlink:href="#DejaVuSans-48"/>
       <use x="306.445312" xlink:href="#DejaVuSans-50"/>
      </g>
     </g>
    </g>
    <g id="text_7">
     <!-- lon -->
     <g transform="translate(208.973438 252.916563)scale(0.1 -0.1)">
      <defs>
       <path d="M 9.421875 75.984375 
L 18.40625 75.984375 
L 18.40625 0 
L 9.421875 0 
z
" id="DejaVuSans-108"/>
       <path d="M 30.609375 48.390625 
Q 23.390625 48.390625 19.1875 42.75 
Q 14.984375 37.109375 14.984375 27.296875 
Q 14.984375 17.484375 19.15625 11.84375 
Q 23.34375 6.203125 30.609375 6.203125 
Q 37.796875 6.203125 41.984375 11.859375 
Q 46.1875 17.53125 46.1875 27.296875 
Q 46.1875 37.015625 41.984375 42.703125 
Q 37.796875 48.390625 30.609375 48.390625 
z
M 30.609375 56 
Q 42.328125 56 49.015625 48.375 
Q 55.71875 40.765625 55.71875 27.296875 
Q 55.71875 13.875 49.015625 6.21875 
Q 42.328125 -1.421875 30.609375 -1.421875 
Q 18.84375 -1.421875 12.171875 6.21875 
Q 5.515625 13.875 5.515625 27.296875 
Q 5.515625 40.765625 12.171875 48.375 
Q 18.84375 56 30.609375 56 
z
" id="DejaVuSans-111"/>
       <path d="M 54.890625 33.015625 
L 54.890625 0 
L 45.90625 0 
L 45.90625 32.71875 
Q 45.90625 40.484375 42.875 44.328125 
Q 39.84375 48.1875 33.796875 48.1875 
Q 26.515625 48.1875 22.3125 43.546875 
Q 18.109375 38.921875 18.109375 30.90625 
L 18.109375 0 
L 9.078125 0 
L 9.078125 54.6875 
L 18.109375 54.6875 
L 18.109375 46.1875 
Q 21.34375 51.125 25.703125 53.5625 
Q 30.078125 56 35.796875 56 
Q 45.21875 56 50.046875 50.171875 
Q 54.890625 44.34375 54.890625 33.015625 
z
" id="DejaVuSans-110"/>
      </defs>
      <use xlink:href="#DejaVuSans-108"/>
      <use x="27.783203" xlink:href="#DejaVuSans-111"/>
      <use x="88.964844" xlink:href="#DejaVuSans-110"/>
     </g>
    </g>
    <g id="text_8">
     <!-- −7.909e1 -->
     <g transform="translate(334.467188 251.916563)scale(0.1 -0.1)">
      <defs>
       <path d="M 10.984375 1.515625 
L 10.984375 10.5 
Q 14.703125 8.734375 18.5 7.8125 
Q 22.3125 6.890625 25.984375 6.890625 
Q 35.75 6.890625 40.890625 13.453125 
Q 46.046875 20.015625 46.78125 33.40625 
Q 43.953125 29.203125 39.59375 26.953125 
Q 35.25 24.703125 29.984375 24.703125 
Q 19.046875 24.703125 12.671875 31.3125 
Q 6.296875 37.9375 6.296875 49.421875 
Q 6.296875 60.640625 12.9375 67.421875 
Q 19.578125 74.21875 30.609375 74.21875 
Q 43.265625 74.21875 49.921875 64.515625 
Q 56.59375 54.828125 56.59375 36.375 
Q 56.59375 19.140625 48.40625 8.859375 
Q 40.234375 -1.421875 26.421875 -1.421875 
Q 22.703125 -1.421875 18.890625 -0.6875 
Q 15.09375 0.046875 10.984375 1.515625 
z
M 30.609375 32.421875 
Q 37.25 32.421875 41.125 36.953125 
Q 45.015625 41.5 45.015625 49.421875 
Q 45.015625 57.28125 41.125 61.84375 
Q 37.25 66.40625 30.609375 66.40625 
Q 23.96875 66.40625 20.09375 61.84375 
Q 16.21875 57.28125 16.21875 49.421875 
Q 16.21875 41.5 20.09375 36.953125 
Q 23.96875 32.421875 30.609375 32.421875 
z
" id="DejaVuSans-57"/>
       <path d="M 56.203125 29.59375 
L 56.203125 25.203125 
L 14.890625 25.203125 
Q 15.484375 15.921875 20.484375 11.0625 
Q 25.484375 6.203125 34.421875 6.203125 
Q 39.59375 6.203125 44.453125 7.46875 
Q 49.3125 8.734375 54.109375 11.28125 
L 54.109375 2.78125 
Q 49.265625 0.734375 44.1875 -0.34375 
Q 39.109375 -1.421875 33.890625 -1.421875 
Q 20.796875 -1.421875 13.15625 6.1875 
Q 5.515625 13.8125 5.515625 26.8125 
Q 5.515625 40.234375 12.765625 48.109375 
Q 20.015625 56 32.328125 56 
Q 43.359375 56 49.78125 48.890625 
Q 56.203125 41.796875 56.203125 29.59375 
z
M 47.21875 32.234375 
Q 47.125 39.59375 43.09375 43.984375 
Q 39.0625 48.390625 32.421875 48.390625 
Q 24.90625 48.390625 20.390625 44.140625 
Q 15.875 39.890625 15.1875 32.171875 
z
" id="DejaVuSans-101"/>
       <path d="M 12.40625 8.296875 
L 28.515625 8.296875 
L 28.515625 63.921875 
L 10.984375 60.40625 
L 10.984375 69.390625 
L 28.421875 72.90625 
L 38.28125 72.90625 
L 38.28125 8.296875 
L 54.390625 8.296875 
L 54.390625 0 
L 12.40625 0 
z
" id="DejaVuSans-49"/>
      </defs>
      <use xlink:href="#DejaVuSans-8722"/>
      <use x="83.789062" xlink:href="#DejaVuSans-55"/>
      <use x="147.412109" xlink:href="#DejaVuSans-46"/>
      <use x="179.199219" xlink:href="#DejaVuSans-57"/>
      <use x="242.822266" xlink:href="#DejaVuSans-48"/>
      <use x="306.445312" xlink:href="#DejaVuSans-57"/>
      <use x="370.068359" xlink:href="#DejaVuSans-101"/>
      <use x="431.591797" xlink:href="#DejaVuSans-49"/>
     </g>
    </g>
   </g>
   <g id="matplotlib.axis_2">
    <g id="ytick_1">
     <g id="line2d_7">
      <defs>
       <path d="M 0 0 
L -3.5 0 
" id="m602c38cecb" style="stroke:#000000;stroke-width:0.8;"/>
      </defs>
      <g>
       <use style="stroke:#000000;stroke-width:0.8;" x="49.190625" xlink:href="#m602c38cecb" y="203.274844"/>
      </g>
     </g>
     <g id="text_9">
      <!-- 35.947 -->
      <g transform="translate(7.2 207.074063)scale(0.1 -0.1)">
       <use xlink:href="#DejaVuSans-51"/>
       <use x="63.623047" xlink:href="#DejaVuSans-53"/>
       <use x="127.246094" xlink:href="#DejaVuSans-46"/>
       <use x="159.033203" xlink:href="#DejaVuSans-57"/>
       <use x="222.65625" xlink:href="#DejaVuSans-52"/>
       <use x="286.279297" xlink:href="#DejaVuSans-55"/>
      </g>
     </g>
    </g>
    <g id="ytick_2">
     <g id="line2d_8">
      <g>
       <use style="stroke:#000000;stroke-width:0.8;" x="49.190625" xlink:href="#m602c38cecb" y="165.694331"/>
      </g>
     </g>
     <g id="text_10">
      <!-- 35.948 -->
      <g transform="translate(7.2 169.49355)scale(0.1 -0.1)">
       <defs>
        <path d="M 31.78125 34.625 
Q 24.75 34.625 20.71875 30.859375 
Q 16.703125 27.09375 16.703125 20.515625 
Q 16.703125 13.921875 20.71875 10.15625 
Q 24.75 6.390625 31.78125 6.390625 
Q 38.8125 6.390625 42.859375 10.171875 
Q 46.921875 13.96875 46.921875 20.515625 
Q 46.921875 27.09375 42.890625 30.859375 
Q 38.875 34.625 31.78125 34.625 
z
M 21.921875 38.8125 
Q 15.578125 40.375 12.03125 44.71875 
Q 8.5 49.078125 8.5 55.328125 
Q 8.5 64.0625 14.71875 69.140625 
Q 20.953125 74.21875 31.78125 74.21875 
Q 42.671875 74.21875 48.875 69.140625 
Q 55.078125 64.0625 55.078125 55.328125 
Q 55.078125 49.078125 51.53125 44.71875 
Q 48 40.375 41.703125 38.8125 
Q 48.828125 37.15625 52.796875 32.3125 
Q 56.78125 27.484375 56.78125 20.515625 
Q 56.78125 9.90625 50.3125 4.234375 
Q 43.84375 -1.421875 31.78125 -1.421875 
Q 19.734375 -1.421875 13.25 4.234375 
Q 6.78125 9.90625 6.78125 20.515625 
Q 6.78125 27.484375 10.78125 32.3125 
Q 14.796875 37.15625 21.921875 38.8125 
z
M 18.3125 54.390625 
Q 18.3125 48.734375 21.84375 45.5625 
Q 25.390625 42.390625 31.78125 42.390625 
Q 38.140625 42.390625 41.71875 45.5625 
Q 45.3125 48.734375 45.3125 54.390625 
Q 45.3125 60.0625 41.71875 63.234375 
Q 38.140625 66.40625 31.78125 66.40625 
Q 25.390625 66.40625 21.84375 63.234375 
Q 18.3125 60.0625 18.3125 54.390625 
z
" id="DejaVuSans-56"/>
       </defs>
       <use xlink:href="#DejaVuSans-51"/>
       <use x="63.623047" xlink:href="#DejaVuSans-53"/>
       <use x="127.246094" xlink:href="#DejaVuSans-46"/>
       <use x="159.033203" xlink:href="#DejaVuSans-57"/>
       <use x="222.65625" xlink:href="#DejaVuSans-52"/>
       <use x="286.279297" xlink:href="#DejaVuSans-56"/>
      </g>
     </g>
    </g>
    <g id="ytick_3">
     <g id="line2d_9">
      <g>
       <use style="stroke:#000000;stroke-width:0.8;" x="49.190625" xlink:href="#m602c38cecb" y="128.113819"/>
      </g>
     </g>
     <g id="text_11">
      <!-- 35.949 -->
      <g transform="translate(7.2 131.913037)scale(0.1 -0.1)">
       <use xlink:href="#DejaVuSans-51"/>
       <use x="63.623047" xlink:href="#DejaVuSans-53"/>
       <use x="127.246094" xlink:href="#DejaVuSans-46"/>
       <use x="159.033203" xlink:href="#DejaVuSans-57"/>
       <use x="222.65625" xlink:href="#DejaVuSans-52"/>
       <use x="286.279297" xlink:href="#DejaVuSans-57"/>
      </g>
     </g>
    </g>
    <g id="ytick_4">
     <g id="line2d_10">
      <g>
       <use style="stroke:#000000;stroke-width:0.8;" x="49.190625" xlink:href="#m602c38cecb" y="90.533306"/>
      </g>
     </g>
     <g id="text_12">
      <!-- 35.950 -->
      <g transform="translate(7.2 94.332524)scale(0.1 -0.1)">
       <use xlink:href="#DejaVuSans-51"/>
       <use x="63.623047" xlink:href="#DejaVuSans-53"/>
       <use x="127.246094" xlink:href="#DejaVuSans-46"/>
       <use x="159.033203" xlink:href="#DejaVuSans-57"/>
       <use x="222.65625" xlink:href="#DejaVuSans-53"/>
       <use x="286.279297" xlink:href="#DejaVuSans-48"/>
      </g>
     </g>
    </g>
    <g id="ytick_5">
     <g id="line2d_11">
      <g>
       <use style="stroke:#000000;stroke-width:0.8;" x="49.190625" xlink:href="#m602c38cecb" y="52.952793"/>
      </g>
     </g>
     <g id="text_13">
      <!-- 35.951 -->
      <g transform="translate(7.2 56.752012)scale(0.1 -0.1)">
       <use xlink:href="#DejaVuSans-51"/>
       <use x="63.623047" xlink:href="#DejaVuSans-53"/>
       <use x="127.246094" xlink:href="#DejaVuSans-46"/>
       <use x="159.033203" xlink:href="#DejaVuSans-57"/>
       <use x="222.65625" xlink:href="#DejaVuSans-53"/>
       <use x="286.279297" xlink:href="#DejaVuSans-49"/>
      </g>
     </g>
    </g>
    <g id="ytick_6">
     <g id="line2d_12">
      <g>
       <use style="stroke:#000000;stroke-width:0.8;" x="49.190625" xlink:href="#m602c38cecb" y="15.37228"/>
      </g>
     </g>
     <g id="text_14">
      <!-- 35.952 -->
      <g transform="translate(7.2 19.171499)scale(0.1 -0.1)">
       <use xlink:href="#DejaVuSans-51"/>
       <use x="63.623047" xlink:href="#DejaVuSans-53"/>
       <use x="127.246094" xlink:href="#DejaVuSans-46"/>
       <use x="159.033203" xlink:href="#DejaVuSans-57"/>
       <use x="222.65625" xlink:href="#DejaVuSans-53"/>
       <use x="286.279297" xlink:href="#DejaVuSans-50"/>
      </g>
     </g>
    </g>
   </g>
   <g id="line2d_13">
    <path clip-path="url(#p11e7c1921c)" d="M 294.388854 19.874501 
L 294.601211 19.883952 
L 295.291376 20.318646 
L 292.033598 23.856054 
L 297.06747 25.456236 
L 302.352319 28.751097 
L 303.708518 31.211215 
L 304.249067 34.890373 
L 303.457548 37.192995 
L 300.556918 39.706665 
L 298.17753 42.648727 
L 295.619568 45.493144 
L 294.388854 47.036624 
L 291.102112 49.657395 
L 286.56535 49.021101 
L 277.226379 44.828502 
L 269.615237 42.648727 
L 258.075453 40.525654 
L 253.070532 40.198057 
L 244.807838 39.999609 
L 236.718888 40.509904 
L 226.993805 42.551078 
L 219.286136 43.332272 
L 213.706884 43.171623 
L 200.197949 45.69789 
L 190.728668 49.729843 
L 186.640757 52.237215 
L 180.269986 56.751108 
L 176.109679 60.883859 
L 172.687802 65.829301 
L 171.490864 68.355568 
L 170.202236 72.601719 
L 169.801648 77.096716 
L 170.665563 81.960255 
L 170.366328 88.250729 
L 170.486988 93.939562 
L 170.458031 94.695554 
L 170.134665 98.960604 
L 170.01883 102.803557 
L 169.541027 107.953745 
L 168.53232 113.400029 
L 162.29186 115.066361 
L 160.737773 115.066361 
L 151.109224 115.378207 
L 142.542465 115.434905 
L 134.955456 115.17976 
L 127.006466 115.113611 
L 118.111522 115.157707 
L 111.595959 114.921461 
L 105.674034 115.05376 
L 99.21156 115.154558 
L 75.137766 115.145107 
L 65.480253 116.883886 
L 64.408807 117.532781 
L 65.016926 121.504883 
L 67.039165 124.82809 
L 70.572046 129.06164 
L 74.404161 134.564626 
L 74.515165 135.298566 
L 76.995906 140.892899 
L 77.309622 141.847339 
L 78.936099 147.655869 
L 79.259459 149.416697 
L 78.969881 153.190351 
L 79.635915 158.000345 
L 85.577147 159.91552 
L 93.444084 160.365967 
L 99.848637 160.325016 
L 106.113229 160.520314 
L 113.888469 161.194407 
L 122.069122 161.172355 
L 132.059651 161.698399 
L 138.565558 161.56925 
L 161.30246 162.312641 
L 169.685813 162.293742 
L 189.715136 163.522227 
L 199.835975 164.08607 
L 209.165296 164.152219 
L 218.663541 163.708077 
L 228.933997 163.405678 
L 235.570214 161.991347 
L 243.779825 160.365967 
L 250.826285 158.724834 
L 267.308245 153.710094 
L 274.09891 150.815282 
L 281.372204 146.906176 
L 287.723674 142.663178 
L 299.688178 133.512537 
L 306.696025 128.573398 
L 313.245371 124.106751 
L 320.15187 119.202261 
L 330.137569 111.793549 
L 340.026745 104.847881 
L 346.300993 100.211137 
L 362.387191 89.220919 
L 365.95386 85.113369 
L 368.019532 78.734697 
L 368.145017 77.559761 
L 364.250162 68.802863 
L 355.789582 63.39753 
L 344.78552 59.592375 
L 316.594852 51.720618 
L 306.816685 49.537694 
L 293.216048 46.031789 
L 283.394443 43.637816 
L 274.711855 41.234396 
L 266.898007 39.385367 
L 256.830257 38.35848 
L 245.507654 37.596189 
L 232.428265 38.286032 
L 219.035165 39.845262 
L 211.916314 41.187146 
L 208.716444 41.65019 
L 200.352398 45.348244 
L 194.908281 48.035165 
L 185.501739 53.805893 
L 181.413829 57.201555 
L 178.305661 61.217755 
L 174.526635 69.728952 
L 173.899209 74.935841 
L 174.352886 79.553685 
L 174.685903 84.801522 
L 174.787256 89.734363 
L 174.232232 94.500256 
L 174.430107 98.24241 
L 173.990912 102.079065 
L 173.368311 106.410264 
L 173.213869 109.216879 
L 168.807423 112.952735 
L 163.121986 113.198432 
L 155.467412 113.655175 
L 147.23367 113.910324 
L 136.774983 114.376518 
L 112.870112 114.168618 
L 102.339034 114.527715 
L 92.107185 114.650566 
L 80.229558 114.666312 
L 69.235147 116.288546 
L 67.66176 116.975236 
L 67.753463 121.211936 
L 68.738038 122.827868 
L 70.991935 126.746418 
L 72.96591 131.260315 
L 74.664782 135.915958 
L 76.165774 139.642366 
L 77.715035 144.392509 
L 78.622383 150.068737 
L 79.640746 154.935433 
L 80.215077 158.397241 
L 87.806917 160.548665 
L 89.278951 160.658911 
L 99.21156 160.939258 
L 114.115308 161.884246 
L 122.22839 162.218145 
L 131.118509 162.151996 
L 146.210487 162.759936 
L 152.996322 163.156831 
L 160.684684 163.182033 
L 197.697907 164.11442 
L 206.588027 163.963223 
L 214.315003 164.073473 
L 227.73706 163.994723 
L 231.902198 163.701775 
L 238.301926 162.041746 
L 243.060702 161.348754 
L 267.48682 154.872433 
L 277.342207 150.166387 
L 284.311447 146.76128 
L 289.77487 143.252222 
L 295.469951 138.977721 
L 300.368687 135.115869 
L 319.563052 121.161536 
L 350.147584 98.24556 
L 361.383309 89.844613 
L 365.587055 85.957559 
L 367.855439 81.65471 
L 368.772443 77.427463 
L 367.633426 73.083663 
L 365.934553 70.428246 
L 361.339876 65.845051 
L 355.258684 62.345441 
L 346.735363 59.390778 
L 340.774831 57.768548 
L 333.318132 56.070716 
L 320.118082 52.353763 
L 315.209695 50.77248 
L 307.613029 48.910855 
L 300.846496 46.772027 
L 285.532511 43.16532 
L 274.369182 40.150807 
L 264.494487 38.881375 
L 255.585061 38.226181 
L 247.722949 37.769435 
L 235.19859 38.314379 
L 223.132732 40.056311 
L 212.514777 42.210884 
L 208.011803 44.100861 
L 201.752036 47.219322 
L 196.114864 50.485835 
L 190.559744 54.105139 
L 183.78356 60.616113 
L 181.244905 64.654365 
L 178.711074 72.012674 
L 177.987126 74.926389 
L 177.779589 78.309451 
L 178.16087 82.527251 
L 177.919555 88.792524 
L 177.412789 91.312493 
L 176.872241 94.912901 
L 177.156994 98.37156 
L 176.273772 100.815932 
L 176.365475 103.666646 
L 175.950406 108.681386 
L 175.081665 113.308679 
L 169.791992 114.619066 
L 160.786037 114.826961 
L 154.14982 114.754514 
L 139.02406 115.078958 
L 131.132991 114.91201 
L 122.628977 115.03801 
L 111.827623 114.921461 
L 103.979986 115.05376 
L 100.138221 115.261655 
L 88.772185 115.236457 
L 77.579893 116.039696 
L 74.626174 116.556293 
L 69.674349 119.366056 
L 71.537314 123.23736 
L 73.897395 127.263015 
L 76.17543 131.458762 
L 77.816388 135.059171 
L 78.738217 138.555628 
L 81.363745 146.836877 
L 82.357976 150.673532 
L 82.695818 156.478913 
L 83.004703 158.088543 
L 83.632129 163.566327 
L 83.723831 168.247172 
L 84.02306 172.858714 
L 83.941014 176.248074 
L 84.409172 178.739696 
L 84.336776 181.918008 
L 84.409172 183.618988 
L 84.838711 186.535852 
L 85.060724 189.440116 
L 85.31652 190.750499 
L 86.392797 194.325707 
L 86.605154 197.916664 
L 86.807861 202.63846 
L 86.822342 205.930171 
L 87.251887 209.029732 
L 86.590679 214.756364 
L 86.498976 213.316831 
L 86.687201 209.10218 
L 86.585848 204.748932 
L 85.886031 199.787741 
L 85.75089 195.815639 
L 84.409172 185.729461 
L 83.998928 176.311074 
L 83.492162 168.867713 
L 84.240248 163.818323 
L 86.904389 162.054347 
L 98.169071 162.164593 
L 105.307234 162.347291 
L 122.711024 162.271694 
L 127.667675 162.359891 
L 132.503672 162.819787 
L 144.043456 163.418279 
L 146.007781 163.437178 
L 149.868854 163.708077 
L 154.709676 163.868723 
L 158.363217 164.215219 
L 165.713737 164.18057 
L 172.11829 164.432566 
L 184.922577 164.678263 
L 193.310762 164.857812 
L 200.56958 164.744413 
L 201.940261 164.842062 
L 210.029211 164.883013 
L 216.660608 165.191707 
L 225.536252 164.734965 
L 233.214959 163.982122 
L 246.434315 160.907758 
L 253.456644 159.509177 
L 261.608333 157.600301 
L 269.383574 154.985832 
L 276.087361 151.501972 
L 282.342303 147.955115 
L 292.718938 141.173246 
L 295.716096 138.174483 
L 301.527012 133.704686 
L 306.686375 129.965681 
L 312.328366 126.519623 
L 327.729224 114.634816 
L 334.032429 110.313065 
L 347.575146 99.694544 
L 352.575236 96.509934 
L 357.121649 93.070174 
L 361.364008 90.071407 
L 366.634375 84.688123 
L 368.73383 79.982081 
L 368.062971 72.226872 
L 364.16811 67.709826 
L 356.445965 62.991183 
L 348.023998 60.219218 
L 335.185922 56.193567 
L 326.044832 53.761796 
L 314.582269 50.526783 
L 305.262599 48.249362 
L 297.06747 44.784402 
L 291.309644 40.119307 
L 294.104095 34.682474 
L 305.180552 22.003876 
L 304.340769 17.083636 
L 304.340769 17.083636 
" style="fill:none;stroke:#1f77b4;stroke-linecap:square;stroke-width:1.5;"/>
   </g>
   <g id="patch_3">
    <path d="M 49.190625 224.64 
L 49.190625 7.2 
" style="fill:none;stroke:#000000;stroke-linecap:square;stroke-linejoin:miter;stroke-width:0.8;"/>
   </g>
   <g id="patch_4">
    <path d="M 383.990625 224.64 
L 383.990625 7.2 
" style="fill:none;stroke:#000000;stroke-linecap:square;stroke-linejoin:miter;stroke-width:0.8;"/>
   </g>
   <g id="patch_5">
    <path d="M 49.190625 224.64 
L 383.990625 224.64 
" style="fill:none;stroke:#000000;stroke-linecap:square;stroke-linejoin:miter;stroke-width:0.8;"/>
   </g>
   <g id="patch_6">
    <path d="M 49.190625 7.2 
L 383.990625 7.2 
" style="fill:none;stroke:#000000;stroke-linecap:square;stroke-linejoin:miter;stroke-width:0.8;"/>
   </g>
   <g id="legend_1">
    <g id="patch_7">
     <path d="M 332.164062 29.878125 
L 376.990625 29.878125 
Q 378.990625 29.878125 378.990625 27.878125 
L 378.990625 14.2 
Q 378.990625 12.2 376.990625 12.2 
L 332.164062 12.2 
Q 330.164062 12.2 330.164062 14.2 
L 330.164062 27.878125 
Q 330.164062 29.878125 332.164062 29.878125 
z
" style="fill:#ffffff;opacity:0.8;stroke:#cccccc;stroke-linejoin:miter;"/>
    </g>
    <g id="line2d_14">
     <path d="M 334.164062 20.298438 
L 354.164062 20.298438 
" style="fill:none;stroke:#1f77b4;stroke-linecap:square;stroke-width:1.5;"/>
    </g>
    <g id="line2d_15"/>
    <g id="text_15">
     <!-- lat -->
     <g transform="translate(362.164062 23.798438)scale(0.1 -0.1)">
      <defs>
       <path d="M 34.28125 27.484375 
Q 23.390625 27.484375 19.1875 25 
Q 14.984375 22.515625 14.984375 16.5 
Q 14.984375 11.71875 18.140625 8.90625 
Q 21.296875 6.109375 26.703125 6.109375 
Q 34.1875 6.109375 38.703125 11.40625 
Q 43.21875 16.703125 43.21875 25.484375 
L 43.21875 27.484375 
z
M 52.203125 31.203125 
L 52.203125 0 
L 43.21875 0 
L 43.21875 8.296875 
Q 40.140625 3.328125 35.546875 0.953125 
Q 30.953125 -1.421875 24.3125 -1.421875 
Q 15.921875 -1.421875 10.953125 3.296875 
Q 6 8.015625 6 15.921875 
Q 6 25.140625 12.171875 29.828125 
Q 18.359375 34.515625 30.609375 34.515625 
L 43.21875 34.515625 
L 43.21875 35.40625 
Q 43.21875 41.609375 39.140625 45 
Q 35.0625 48.390625 27.6875 48.390625 
Q 23 48.390625 18.546875 47.265625 
Q 14.109375 46.140625 10.015625 43.890625 
L 10.015625 52.203125 
Q 14.9375 54.109375 19.578125 55.046875 
Q 24.21875 56 28.609375 56 
Q 40.484375 56 46.34375 49.84375 
Q 52.203125 43.703125 52.203125 31.203125 
z
" id="DejaVuSans-97"/>
       <path d="M 18.3125 70.21875 
L 18.3125 54.6875 
L 36.8125 54.6875 
L 36.8125 47.703125 
L 18.3125 47.703125 
L 18.3125 18.015625 
Q 18.3125 11.328125 20.140625 9.421875 
Q 21.96875 7.515625 27.59375 7.515625 
L 36.8125 7.515625 
L 36.8125 0 
L 27.59375 0 
Q 17.1875 0 13.234375 3.875 
Q 9.28125 7.765625 9.28125 18.015625 
L 9.28125 47.703125 
L 2.6875 47.703125 
L 2.6875 54.6875 
L 9.28125 54.6875 
L 9.28125 70.21875 
z
" id="DejaVuSans-116"/>
      </defs>
      <use xlink:href="#DejaVuSans-108"/>
      <use x="27.783203" xlink:href="#DejaVuSans-97"/>
      <use x="89.0625" xlink:href="#DejaVuSans-116"/>
     </g>
    </g>
   </g>
  </g>
 </g>
 <defs>
  <clipPath id="p11e7c1921c">
   <rect height="217.44" width="334.8" x="49.190625" y="7.2"/>
  </clipPath>
 </defs>
</svg>
